<svg width="384" height="352" viewBox="0 0 384 352" fill="none" xmlns="http://www.w3.org/2000/svg">
<path d="M186 0.808467C183.1 2.00847 179.3 5.40847 177.7 8.20847C176.8 9.70847 176.4 40.4085 176 124.108L175.5 238.008L147.8 215.908C118.8 192.808 117 191.708 109.5 193.108C103 194.308 97 201.608 97 208.108C97 209.508 97.7 212.508 98.6 214.708C100 218.108 106 223.308 141.5 251.708C164.2 269.808 184.5 285.408 186.6 286.308C194.9 289.808 194.7 289.908 241.9 252.208C265.5 233.308 285.6 216.708 286.5 215.308C292.3 206.508 287.5 194.708 277 191.608C270 189.508 267.3 191.008 237.1 215.208C221.7 227.608 208.8 237.708 208.5 237.708C208.3 237.708 207.9 186.408 207.8 123.808C207.5 10.5085 207.5 9.80847 205.4 7.10847C204.3 5.60847 202.2 3.40847 200.8 2.40847C197.7 0.108467 189.7 -0.791533 186 0.808467Z" fill="white"/>
<path d="M9.5 225.108C5.8 226.808 2.5 230.308 1.1 234.008C0.4 235.808 0 249.808 0 273.108C0 302.408 0.3 310.408 1.5 315.208C6 332.408 19.4 345.708 36.7 350.208C45.3 352.508 338.7 352.508 347.3 350.208C365.1 345.608 379.3 330.908 383 313.408C383.7 309.908 384 295.308 383.8 270.908C383.5 235.308 383.4 233.708 381.4 231.108C377.5 225.808 374.3 224.208 368 224.208C361.7 224.208 358.5 225.808 354.6 231.108C352.6 233.708 352.5 235.408 352 271.708C351.5 308.008 351.4 309.708 349.4 312.308C348.3 313.808 346.1 316.008 344.6 317.108C341.9 319.208 341.8 319.208 192 319.208C42.2 319.208 42.1 319.208 39.4 317.108C37.9 316.008 35.7 313.808 34.6 312.308C32.6 309.708 32.5 308.008 32 271.708C31.5 235.408 31.4 233.708 29.4 231.108C28.3 229.608 26.2 227.408 24.8 226.408C21.4 223.908 13.5 223.208 9.5 225.108Z" fill="white"/>
</svg>
